<svg xmlns="http://www.w3.org/2000/svg" width="512" height="512" viewBox="0 0 512 512">
  <defs>
    <linearGradient id="iconBg" x1="0" y1="0" x2="1" y2="1">
      <stop offset="0%" stop-color="#0F6E56"/>
      <stop offset="100%" stop-color="#1D9E75"/>
    </linearGradient>
    <linearGradient id="bottleGrad" x1="0" y1="0" x2="0" y2="1">
      <stop offset="0%" stop-color="#ffffff"/>
      <stop offset="100%" stop-color="#f3f3f0"/>
    </linearGradient>
    <linearGradient id="milkGrad" x1="0" y1="0" x2="0" y2="1">
      <stop offset="0%" stop-color="#FFFBE0" stop-opacity="0.9"/>
      <stop offset="100%" stop-color="#FFF5C2" stop-opacity="0.7"/>
    </linearGradient>
  </defs>

  <rect x="0" y="0" width="512" height="512" rx="115" ry="115" fill="url(#iconBg)"/>
  <path d="M 0,115 L 512,115 L 512,200 Q 256,280 0,200 Z" fill="#fff" opacity="0.05"/>

  <circle cx="90"  cy="110" r="12" fill="#fff" opacity="0.15"/>
  <circle cx="420" cy="140" r="8"  fill="#fff" opacity="0.2"/>
  <circle cx="440" cy="400" r="16" fill="#fff" opacity="0.12"/>
  <circle cx="80"  cy="420" r="10" fill="#fff" opacity="0.15"/>

  <g transform="translate(176, 120)">
    <ellipse cx="80" cy="20" rx="35" ry="18" fill="#EAD9B8"/>
    <rect x="55" y="16" width="50" height="14" rx="7" fill="#D9C193"/>
    <rect x="48" y="30" width="64" height="16" rx="3" fill="#0F6E56"/>
    <path d="M 40,50 L 120,50 Q 128,50 128,60 L 128,250 Q 128,280 100,280 L 60,280 Q 32,280 32,250 L 32,60 Q 32,50 40,50 Z"
          fill="url(#bottleGrad)" stroke="#e0e0dd" stroke-width="1.5"/>
    <path d="M 40,120 L 120,120 L 120,250 Q 120,270 100,270 L 60,270 Q 40,270 40,250 Z" fill="url(#milkGrad)"/>
    <g fill="#9a9a94" opacity="0.4">
      <rect x="42" y="90"  width="14" height="2" rx="1"/>
      <rect x="42" y="120" width="8"  height="2" rx="1"/>
      <rect x="42" y="150" width="14" height="2" rx="1"/>
      <rect x="42" y="180" width="8"  height="2" rx="1"/>
      <rect x="42" y="210" width="14" height="2" rx="1"/>
    </g>
    <path d="M 45,70 L 50,70 L 50,240 L 45,240 Z" fill="#fff" opacity="0.5"/>
  </g>
</svg>
